{
  "accessors": [
    {
      "bufferView": 2,
      "componentType": 5126,
      "count": 55668,
      "max": [
        14.508756637573242,
        -2.549386501312256,
        12.696937561035156
      ],
      "min": [
        -16.276615142822266,
        -46.196903228759766,
        -14.375526428222656
      ],
      "type": "VEC3"
    },
    {
      "bufferView": 2,
      "byteOffset": 668016,
      "componentType": 5126,
      "count": 55668,
      "max": [
        0.9999927282333374,
        0.9999997615814209,
        0.9999786019325256
      ],
      "min": [
        -0.9999811053276062,
        -0.9999999403953552,
        -0.999986469745636
      ],
      "type": "VEC3"
    },
    {
      "bufferView": 3,
      "componentType": 5126,
      "count": 55668,
      "max": [
        1.0,
        1.0,
        0.9948839545249939,
        -1.0
      ],
      "min": [
        -1.0,
        -1.0,
        -0.9953653812408447,
        -1.0
      ],
      "type": "VEC4"
    },
    {
      "bufferView": 1,
      "componentType": 5126,
      "count": 55668,
      "max": [
        0.9996910095214844,
        0.9938960075378418
      ],
      "min": [
        0.00024399999529123306,
        0.0002460000105202198
      ],
      "type": "VEC2"
    },
    {
      "bufferView": 0,
      "componentType": 5125,
      "count": 239946,
      "type": "SCALAR"
    }
  ],
  "asset": {
    "extras": {
      "author": "Rigsters (https://sketchfab.com/rigsters)",
      "license": "CC-BY-4.0 (http://creativecommons.org/licenses/by/4.0/)",
      "source": "https://sketchfab.com/3d-models/hans-christian-andersen-74f1cba24216401b9d843111ebae3737",
      "title": "Hans Christian Andersen"
    },
    "generator": "Sketchfab-12.68.0",
    "version": "2.0"
  },
  "bufferViews": [
    {
      "buffer": 0,
      "byteLength": 959784,
      "name": "floatBufferViews",
      "target": 34963
    },
    {
      "buffer": 0,
      "byteLength": 445344,
      "byteOffset": 959784,
      "byteStride": 8,
      "name": "floatBufferViews",
      "target": 34962
    },
    {
      "buffer": 0,
      "byteLength": 1336032,
      "byteOffset": 1405128,
      "byteStride": 12,
      "name": "floatBufferViews",
      "target": 34962
    },
    {
      "buffer": 0,
      "byteLength": 890688,
      "byteOffset": 2741160,
      "byteStride": 16,
      "name": "floatBufferViews",
      "target": 34962
    }
  ],
  "buffers": [
    {
      "byteLength": 3631848,
      "uri": "scene.bin"
    }
  ],
  "images": [
    {
      "uri": "textures/hans_low80-tex_baseColor.jpeg"
    },
    {
      "uri": "textures/hans_low80-tex_metallicRoughness.png"
    },
    {
      "uri": "textures/hans_low80-tex_normal.jpeg"
    }
  ],
  "materials": [
    {
      "doubleSided": true,
      "name": "hans_low80-tex",
      "normalTexture": {
        "index": 2
      },
      "pbrMetallicRoughness": {
        "baseColorTexture": {
          "index": 0
        },
        "metallicFactor": 0.55,
        "metallicRoughnessTexture": {
          "index": 1
        }
      }
    }
  ],
  "meshes": [
    {
      "name": "Object_0",
      "primitives": [
        {
          "attributes": {
            "NORMAL": 1,
            "POSITION": 0,
            "TANGENT": 2,
            "TEXCOORD_0": 3
          },
          "indices": 4,
          "material": 0,
          "mode": 4
        }
      ]
    }
  ],
  "nodes": [
    {
      "children": [
        1
      ],
      "matrix": [
        1.0,
        0.0,
        0.0,
        0.0,
        0.0,
        -1.0,
        -2.220446049250313e-16,
        0.0,
        0.0,
        2.220446049250313e-16,
        -1.0,
        0.0,
        0.0,
        -25.222530364990238,
        23.540510177612298,
        1.0
      ],
      "name": "Sketchfab_model"
    },
    {
      "children": [
        2
      ],
      "name": "HansChristianAndersen-80k.obj.cleaner.materialmerger.gles"
    },
    {
      "mesh": 0,
      "name": "Object_2"
    }
  ],
  "samplers": [
    {
      "magFilter": 9729,
      "minFilter": 9987,
      "wrapS": 10497,
      "wrapT": 10497
    }
  ],
  "scene": 0,
  "scenes": [
    {
      "name": "Sketchfab_Scene",
      "nodes": [
        0
      ]
    }
  ],
  "textures": [
    {
      "sampler": 0,
      "source": 0
    },
    {
      "sampler": 0,
      "source": 1
    },
    {
      "sampler": 0,
      "source": 2
    }
  ]
}
